<?xml version="1.0"?>
<svg xmlns="http://www.w3.org/2000/svg" xmlns:xlink="http://www.w3.org/1999/xlink" version="1.1" viewBox="0 0 512 512" enable-background="new 0 0 512 512" width="512px" height="512px" class=""><g><g>
    <g>
      <g>
        <path d="m437.2,297.5v-54c0-10.9-8.8-19.7-19.7-19.7h-321c-10.9,0-19.7,8.8-19.7,19.7v54c-14.8-9.7-24-26-24-43.8 0-13.1 5-25.7 14.2-35.4 5.4-5.8 7-14.2 4.1-21.5-5-12.4-7.5-25.3-7.5-38.3 0-58.2 48.5-105.6 108.1-105.6 43.9,0 83.1,25.6 99.9,65.3 2.4,5.7 7.4,10.1 13.4,11.7 6,1.7 12.5,0.5 17.5-3.2 11-8.1 24-12.4 37.7-12.4 34.6,0 62.7,27.4 62.7,61.1 0,1.8-0.1,3.5-0.3,5.2-0.9,10.3 6,19.6 16.1,21.7 24.6,5.2 42.5,26.9 42.5,51.4 0,18-9.3,34.2-24,43.8zm-39.4,165.1h-45.9v-41.5c0-10.9-8.8-19.7-19.7-19.7s-19.7,8.8-19.7,19.7v41.5h-35.8v-71c0-10.9-8.8-19.7-19.7-19.7-10.9,0-19.7,8.8-19.7,19.7v71h-35.8v-130.1c0-10.9-8.8-19.7-19.7-19.7-10.9,0-19.7,8.8-19.7,19.7v130.1h-45.9v-199.4h281.5v199.4h0.1zm104.2-208.9c0-38-23.8-72.1-58.6-86.3-4.1-52.5-48.9-94-103.2-94-14.4,0-28.5,2.9-41.4,8.5-26.8-43.1-74.5-70-127-70-82.2,0.1-149,65.8-149,146.5-1.06581e-14,14.2 2.1,28.2 6.3,41.9-11.1,15.6-17.1,34.2-17.1,53.4 0,37.7 22.8,71.5 58.1,86.2 2.2,0.9 4.5,1.4 6.7,1.5v140.9c0,10.9 8.8,19.7 19.7,19.7h321c10.9,0 19.7-8.8 19.7-19.7v-139.9c38.9-12.8 64.8-48.1 64.8-88.7z" data-original="#000000" class="active-path" data-old_color="#00AFFF" fill="#00B7FF"/>
      </g>
    </g>
  </g></g> </svg>
